<svg xmlns="http://www.w3.org/2000/svg" xmlns:xlink="http://www.w3.org/1999/xlink" width="500" zoomAndPan="magnify" viewBox="0 0 375 374.999991" height="500" preserveAspectRatio="xMidYMid meet" version="1.0"><path stroke-linecap="round" transform="matrix(15.625, 0, 0, 15.625, 0.0000045, 0)" fill="none" stroke-linejoin="round" d="M 11 21 L 4 21 C 3.9345 21 3.86925 20.99675 3.804 20.99025 C 3.73875 20.984 3.674 20.97425 3.60975 20.9615 C 3.5455 20.94875 3.482 20.933 3.4195 20.914 C 3.35675 20.89475 3.29525 20.87275 3.23475 20.84775 C 3.174 20.82275 3.115 20.79475 3.05725 20.76375 C 2.9995 20.733 2.94325 20.69925 2.88875 20.663 C 2.8345 20.6265 2.78175 20.5875 2.73125 20.546 C 2.6805 20.5045 2.632 20.4605 2.58575 20.41425 C 2.5395 20.368 2.4955 20.3195 2.454 20.26875 C 2.4125 20.21825 2.3735 20.1655 2.337 20.11125 C 2.30075 20.05675 2.267 20.0005 2.23625 19.94275 C 2.20525 19.885 2.17725 19.826 2.15225 19.76525 C 2.12725 19.70475 2.10525 19.64325 2.086 19.5805 C 2.067 19.518 2.05125 19.4545 2.0385 19.39025 C 2.02575 19.326 2.016 19.26125 2.00975 19.196 C 2.00325 19.13075 2 19.0655 2 19 L 2 14.46 C 2 14.3745 2.0055 14.28925 2.0165 14.20425 C 2.0275 14.1195 2.04375 14.0355 2.0655 13.95275 C 2.08725 13.87 2.114 13.789 2.14625 13.7095 C 2.17825 13.63025 2.21525 13.55325 2.25725 13.47875 C 2.29925 13.40425 2.346 13.3325 2.397 13.264 C 2.44825 13.1955 2.50375 13.1305 2.56325 13.069 C 2.62275 13.0075 2.686 12.95 2.75275 12.8965 C 2.81975 12.84325 2.88975 12.7945 2.963 12.75 L 6.463 10.628 C 6.54075 10.58075 6.6215 10.53925 6.705 10.503 C 6.7885 10.46675 6.874 10.4365 6.96175 10.412 C 7.04925 10.3875 7.13825 10.369 7.22825 10.35675 C 7.3185 10.34425 7.409 10.33825 7.5 10.33825 C 7.591 10.33825 7.6815 10.34425 7.77175 10.35675 C 7.86175 10.369 7.95075 10.3875 8.03825 10.412 C 8.126 10.4365 8.2115 10.46675 8.295 10.503 C 8.3785 10.53925 8.45925 10.58075 8.537 10.628 L 12.037 12.749 C 12.11025 12.7935 12.18025 12.84225 12.24725 12.89575 C 12.31425 12.949 12.3775 13.0065 12.437 13.068 C 12.4965 13.1295 12.552 13.19475 12.603 13.26325 C 12.65425 13.332 12.701 13.4035 12.743 13.47825 C 12.785 13.55275 12.822 13.62975 12.854 13.70925 C 12.88625 13.7885 12.913 13.86975 12.93475 13.9525 C 12.9565 14.03525 12.97275 14.11925 12.98375 14.20425 C 12.9945 14.289 13 14.37425 13 14.46 L 13 19 C 13 19.0655 12.99675 19.13075 12.99025 19.196 C 12.984 19.26125 12.97425 19.326 12.9615 19.39025 C 12.94875 19.4545 12.933 19.518 12.914 19.5805 C 12.89475 19.64325 12.87275 19.70475 12.84775 19.76525 C 12.82275 19.826 12.79475 19.885 12.76375 19.94275 C 12.733 20.0005 12.69925 20.05675 12.663 20.11125 C 12.6265 20.1655 12.5875 20.21825 12.546 20.26875 C 12.5045 20.3195 12.4605 20.368 12.41425 20.41425 C 12.368 20.4605 12.3195 20.5045 12.26875 20.546 C 12.21825 20.5875 12.1655 20.6265 12.11125 20.663 C 12.05675 20.69925 12.0005 20.733 11.94275 20.76375 C 11.885 20.79475 11.826 20.82275 11.76525 20.84775 C 11.70475 20.87275 11.64325 20.89475 11.5805 20.914 C 11.518 20.933 11.4545 20.94875 11.39025 20.9615 C 11.326 20.97425 11.26125 20.984 11.196 20.99025 C 11.13075 20.99675 11.0655 21 11 21 M 6.5 10 L 6.5 6.46 C 6.5 6.3745 6.5055 6.28925 6.5165 6.20425 C 6.5275 6.1195 6.54375 6.0355 6.5655 5.95275 C 6.58725 5.87 6.614 5.789 6.64625 5.7095 C 6.67825 5.63025 6.71525 5.55325 6.75725 5.47875 C 6.79925 5.40425 6.846 5.3325 6.897 5.264 C 6.94825 5.1955 7.00375 5.1305 7.06325 5.069 C 7.12275 5.0075 7.186 4.95 7.25275 4.8965 C 7.31975 4.84325 7.38975 4.7945 7.463 4.75 L 10.963 2.628 C 11.04075 2.58075 11.1215 2.53925 11.205 2.503 C 11.2885 2.46675 11.374 2.4365 11.46175 2.412 C 11.54925 2.3875 11.63825 2.369 11.72825 2.35675 C 11.8185 2.34425 11.909 2.33825 12 2.33825 C 12.091 2.33825 12.1815 2.34425 12.27175 2.35675 C 12.36175 2.369 12.45075 2.3875 12.53825 2.412 C 12.626 2.4365 12.7115 2.46675 12.795 2.503 C 12.8785 2.53925 12.95925 2.58075 13.037 2.628 L 16.536999 4.749 C 16.610249 4.7935 16.680249 4.84225 16.747249 4.8955 C 16.813999 4.949 16.877249 5.0065 16.936749 5.068 C 16.996249 5.1295 17.051749 5.1945 17.102999 5.263 C 17.153999 5.3315 17.200749 5.40325 17.242749 5.47775 C 17.284749 5.55225 17.321749 5.62925 17.353749 5.7085 C 17.385999 5.788 17.412749 5.869 17.434499 5.95175 C 17.456249 6.0345 17.472499 6.1185 17.483499 6.20325 C 17.494499 6.28825 17.499999 6.3735 17.499999 6.459 L 17.499999 10 M 15.999999 21 L 19.999999 21 C 20.065499 21 20.130749 20.99675 20.195999 20.99025 C 20.261249 20.984 20.325999 20.97425 20.390249 20.9615 C 20.454499 20.94875 20.517999 20.933 20.580499 20.914 C 20.643249 20.89475 20.704749 20.87275 20.765249 20.84775 C 20.825999 20.82275 20.884999 20.79475 20.942749 20.76375 C 21.000499 20.733 21.056749 20.69925 21.111249 20.663 C 21.165499 20.6265 21.218249 20.5875 21.268749 20.546 C 21.319499 20.5045 21.367999 20.4605 21.414249 20.41425 C 21.460499 20.368 21.504499 20.3195 21.545999 20.26875 C 21.587499 20.21825 21.626499 20.1655 21.662999 20.11125 C 21.699249 20.05675 21.732999 20.0005 21.763749 19.94275 C 21.794749 19.885 21.822749 19.826 21.847749 19.76525 C 21.872749 19.70475 21.894749 19.64325 21.913999 19.5805 C 21.932999 19.518 21.948749 19.4545 21.961499 19.39025 C 21.974249 19.326 21.983999 19.26125 21.990249 19.196 C 21.996749 19.13075 21.999999 19.0655 21.999999 19 L 21.999999 14.46 C 21.999999 14.3745 21.994499 14.28925 21.983499 14.20425 C 21.972499 14.1195 21.956249 14.0355 21.934499 13.95275 C 21.912749 13.87 21.885999 13.789 21.853749 13.7095 C 21.821749 13.63025 21.784749 13.55325 21.742749 13.47875 C 21.700749 13.40425 21.653999 13.3325 21.602999 13.264 C 21.551749 13.1955 21.496249 13.1305 21.436749 13.069 C 21.377249 13.0075 21.313999 12.95 21.247249 12.8965 C 21.180249 12.84325 21.110249 12.7945 21.036999 12.75 L 17.530999 10.625 C 17.453499 10.578 17.373249 10.5365 17.290249 10.5005 C 17.207249 10.4645 17.121999 10.43425 17.034749 10.40975 C 16.947749 10.38525 16.859249 10.36675 16.769499 10.3545 C 16.679749 10.342 16.589749 10.3355 16.499249 10.33525 C 16.408749 10.33525 16.318499 10.341 16.228749 10.353 C 16.138999 10.365 16.050499 10.38325 15.963249 10.40725 C 15.875999 10.43125 15.790499 10.461 15.707249 10.49675 C 15.623999 10.53225 15.543749 10.5735 15.465999 10.62 L 14.832999 11 " stroke="#000000" stroke-width="1.5" stroke-opacity="1" stroke-miterlimit="4"/><path stroke-linecap="round" transform="matrix(15.625, 0, 0, 15.625, 0.0000045, 0)" fill="none" stroke-linejoin="round" d="M 9 21 L 9 17.6 C 9 17.5605 8.99625 17.5215 8.9885 17.483 C 8.98075 17.44425 8.9695 17.40675 8.95425 17.3705 C 8.93925 17.334 8.92075 17.2995 8.899 17.26675 C 8.877 17.234 8.852 17.2035 8.82425 17.17575 C 8.7965 17.148 8.766 17.123 8.73325 17.101 C 8.7005 17.07925 8.666 17.06075 8.6295 17.04575 C 8.59325 17.0305 8.55575 17.01925 8.517 17.0115 C 8.4785 17.00375 8.4395 17 8.4 17 L 6.6 17 C 6.5605 17 6.5215 17.00375 6.483 17.0115 C 6.44425 17.01925 6.40675 17.0305 6.3705 17.04575 C 6.334 17.06075 6.2995 17.07925 6.26675 17.101 C 6.234 17.123 6.2035 17.148 6.17575 17.17575 C 6.148 17.2035 6.123 17.234 6.101 17.26675 C 6.07925 17.2995 6.06075 17.334 6.04575 17.3705 C 6.0305 17.40675 6.01925 17.44425 6.0115 17.483 C 6.00375 17.5215 6 17.5605 6 17.6 L 6 21 M 17.999999 21 L 17.999999 17.6 C 17.999999 17.5605 17.996249 17.5215 17.988499 17.483 C 17.980749 17.44425 17.969499 17.40675 17.954249 17.3705 C 17.939249 17.334 17.920749 17.2995 17.898999 17.26675 C 17.876999 17.234 17.851999 17.2035 17.824249 17.17575 C 17.796499 17.148 17.765999 17.123 17.733249 17.101 C 17.700499 17.07925 17.665999 17.06075 17.629499 17.04575 C 17.593249 17.0305 17.555749 17.01925 17.516999 17.0115 C 17.478499 17.00375 17.439499 17 17.399999 17 L 15.999999 17 " stroke="#000000" stroke-width="1.5" stroke-opacity="1" stroke-miterlimit="4"/></svg>