<svg xmlns="http://www.w3.org/2000/svg" xmlns:xlink="http://www.w3.org/1999/xlink" width="500" zoomAndPan="magnify" viewBox="0 0 375 374.999991" height="500" preserveAspectRatio="xMidYMid meet" version="1.0"><path stroke-linecap="round" transform="matrix(0.732422, 0, 0, 0.732422, 0.0000045, 0)" fill="none" stroke-linejoin="round" d="M 160.000005 144.00001 L 448.000025 144.00001 M 160.000005 256.000018 L 448.000025 256.000018 M 160.000005 368.000026 L 448.000025 368.000026 " stroke="#000000" stroke-width="32" stroke-opacity="1" stroke-miterlimit="4"/><path stroke-linecap="round" transform="matrix(0.732422, 0, 0, 0.732422, 0.0000045, 0)" fill="none" stroke-linejoin="round" d="M 96.000001 144.00001 C 96.000001 145.050677 95.898667 146.090677 95.690667 147.12001 C 95.488001 148.149344 95.184 149.15201 94.784 150.122677 C 94.378667 151.093344 93.888 152.016011 93.301334 152.890677 C 92.72 153.760011 92.058667 154.570677 91.312 155.312011 C 90.570667 156.058678 89.76 156.720011 88.890667 157.301344 C 88.016 157.888011 87.093333 158.378678 86.122667 158.784011 C 85.152 159.184011 84.149333 159.488011 83.12 159.690678 C 82.090666 159.898678 81.050666 160.000011 79.999999 160.000011 C 78.949333 160.000011 77.909333 159.898678 76.879999 159.690678 C 75.850666 159.488011 74.847999 159.184011 73.877332 158.784011 C 72.906666 158.378678 71.983999 157.888011 71.109332 157.301344 C 70.239999 156.720011 69.429332 156.058678 68.687999 155.312011 C 67.941332 154.570677 67.279999 153.760011 66.698665 152.890677 C 66.111998 152.016011 65.621332 151.093344 65.215998 150.122677 C 64.815998 149.15201 64.511998 148.149344 64.309332 147.12001 C 64.101332 146.090677 63.999998 145.050677 63.999998 144.00001 C 63.999998 142.949343 64.101332 141.909343 64.309332 140.88001 C 64.511998 139.850676 64.815998 138.84801 65.215998 137.877343 C 65.621332 136.906676 66.111998 135.984009 66.698665 135.109343 C 67.279999 134.234676 67.941332 133.429343 68.687999 132.688009 C 69.429332 131.941343 70.239999 131.280009 71.109332 130.698676 C 71.983999 130.112009 72.906666 129.621342 73.877332 129.216009 C 74.847999 128.816009 75.850666 128.512009 76.879999 128.309342 C 77.909333 128.101342 78.949333 128.000009 79.999999 128.000009 C 81.050666 128.000009 82.090666 128.101342 83.12 128.309342 C 84.149333 128.512009 85.152 128.816009 86.122667 129.216009 C 87.093333 129.621342 88.016 130.112009 88.890667 130.698676 C 89.76 131.280009 90.570667 131.941343 91.312 132.688009 C 92.058667 133.429343 92.72 134.234676 93.301334 135.109343 C 93.888 135.984009 94.378667 136.906676 94.784 137.877343 C 95.184 138.84801 95.488001 139.850676 95.690667 140.88001 C 95.898667 141.909343 96.000001 142.949343 96.000001 144.00001 Z M 96.000001 144.00001 " stroke="#000000" stroke-width="32" stroke-opacity="1" stroke-miterlimit="4"/><path stroke-linecap="round" transform="matrix(0.732422, 0, 0, 0.732422, 0.0000045, 0)" fill="none" stroke-linejoin="round" d="M 96.000001 256.000018 C 96.000001 257.050685 95.898667 258.090685 95.690667 259.120018 C 95.488001 260.149351 95.184 261.152018 94.784 262.122685 C 94.378667 263.093352 93.888 264.016018 93.301334 264.890685 C 92.72 265.760019 92.058667 266.570685 91.312 267.312019 C 90.570667 268.058685 89.76 268.720019 88.890667 269.301352 C 88.016 269.888019 87.093333 270.378686 86.122667 270.784019 C 85.152 271.184019 84.149333 271.488019 83.12 271.690686 C 82.090666 271.898686 81.050666 272.000019 79.999999 272.000019 C 78.949333 272.000019 77.909333 271.898686 76.879999 271.690686 C 75.850666 271.488019 74.847999 271.184019 73.877332 270.784019 C 72.906666 270.378686 71.983999 269.888019 71.109332 269.301352 C 70.239999 268.720019 69.429332 268.058685 68.687999 267.312019 C 67.941332 266.570685 67.279999 265.760019 66.698665 264.890685 C 66.111998 264.016018 65.621332 263.093352 65.215998 262.122685 C 64.815998 261.152018 64.511998 260.149351 64.309332 259.120018 C 64.101332 258.090685 63.999998 257.050685 63.999998 256.000018 C 63.999998 254.949351 64.101332 253.909351 64.309332 252.880018 C 64.511998 251.850684 64.815998 250.848017 65.215998 249.877351 C 65.621332 248.906684 66.111998 247.984017 66.698665 247.109351 C 67.279999 246.234684 67.941332 245.42935 68.687999 244.688017 C 69.429332 243.94135 70.239999 243.280017 71.109332 242.698684 C 71.983999 242.112017 72.906666 241.62135 73.877332 241.216017 C 74.847999 240.816017 75.850666 240.512017 76.879999 240.30935 C 77.909333 240.10135 78.949333 240.000017 79.999999 240.000017 C 81.050666 240.000017 82.090666 240.10135 83.12 240.30935 C 84.149333 240.512017 85.152 240.816017 86.122667 241.216017 C 87.093333 241.62135 88.016 242.112017 88.890667 242.698684 C 89.76 243.280017 90.570667 243.94135 91.312 244.688017 C 92.058667 245.42935 92.72 246.234684 93.301334 247.109351 C 93.888 247.984017 94.378667 248.906684 94.784 249.877351 C 95.184 250.848017 95.488001 251.850684 95.690667 252.880018 C 95.898667 253.909351 96.000001 254.949351 96.000001 256.000018 Z M 96.000001 256.000018 " stroke="#000000" stroke-width="32" stroke-opacity="1" stroke-miterlimit="4"/><path stroke-linecap="round" transform="matrix(0.732422, 0, 0, 0.732422, 0.0000045, 0)" fill="none" stroke-linejoin="round" d="M 96.000001 368.000026 C 96.000001 369.050692 95.898667 370.090692 95.690667 371.120026 C 95.488001 372.149359 95.184 373.152026 94.784 374.122693 C 94.378667 375.09336 93.888 376.016026 93.301334 376.890693 C 92.72 377.760026 92.058667 378.570693 91.312 379.312026 C 90.570667 380.058693 89.76 380.720027 88.890667 381.30136 C 88.016 381.888027 87.093333 382.378693 86.122667 382.784027 C 85.152 383.184027 84.149333 383.488027 83.12 383.690693 C 82.090666 383.898693 81.050666 384.000027 79.999999 384.000027 C 78.949333 384.000027 77.909333 383.898693 76.879999 383.690693 C 75.850666 383.488027 74.847999 383.184027 73.877332 382.784027 C 72.906666 382.378693 71.983999 381.888027 71.109332 381.30136 C 70.239999 380.720027 69.429332 380.058693 68.687999 379.312026 C 67.941332 378.570693 67.279999 377.760026 66.698665 376.890693 C 66.111998 376.016026 65.621332 375.09336 65.215998 374.122693 C 64.815998 373.152026 64.511998 372.149359 64.309332 371.120026 C 64.101332 370.090692 63.999998 369.050692 63.999998 368.000026 C 63.999998 366.949359 64.101332 365.909359 64.309332 364.880025 C 64.511998 363.850692 64.815998 362.848025 65.215998 361.877359 C 65.621332 360.906692 66.111998 359.984025 66.698665 359.109358 C 67.279999 358.234692 67.941332 357.429358 68.687999 356.688025 C 69.429332 355.941358 70.239999 355.280025 71.109332 354.698691 C 71.983999 354.112025 72.906666 353.621358 73.877332 353.216025 C 74.847999 352.816025 75.850666 352.512025 76.879999 352.309358 C 77.909333 352.101358 78.949333 352.000025 79.999999 352.000025 C 81.050666 352.000025 82.090666 352.101358 83.12 352.309358 C 84.149333 352.512025 85.152 352.816025 86.122667 353.216025 C 87.093333 353.621358 88.016 354.112025 88.890667 354.698691 C 89.76 355.280025 90.570667 355.941358 91.312 356.688025 C 92.058667 357.429358 92.72 358.234692 93.301334 359.109358 C 93.888 359.984025 94.378667 360.906692 94.784 361.877359 C 95.184 362.848025 95.488001 363.850692 95.690667 364.880025 C 95.898667 365.909359 96.000001 366.949359 96.000001 368.000026 Z M 96.000001 368.000026 " stroke="#000000" stroke-width="32" stroke-opacity="1" stroke-miterlimit="4"/></svg>