<svg xmlns="http://www.w3.org/2000/svg" xmlns:xlink="http://www.w3.org/1999/xlink" width="500" zoomAndPan="magnify" viewBox="0 0 375 374.999991" height="500" preserveAspectRatio="xMidYMid meet" version="1.0"><path fill="#000000" d="M 210.9375 140.625 L 210.9375 62.5 L 312.5 62.5 L 312.5 140.625 Z M 62.5 187.5 L 62.5 62.5 L 164.0625 62.5 L 164.0625 187.5 Z M 210.9375 312.5 L 210.9375 187.5 L 312.5 187.5 L 312.5 312.5 Z M 62.5 312.5 L 62.5 234.375 L 164.0625 234.375 L 164.0625 312.5 Z M 78.125 171.875 L 148.4375 171.875 L 148.4375 78.125 L 78.125 78.125 Z M 226.5625 296.875 L 296.875 296.875 L 296.875 203.125 L 226.5625 203.125 Z M 226.5625 125 L 296.875 125 L 296.875 78.125 L 226.5625 78.125 Z M 78.125 296.875 L 148.4375 296.875 L 148.4375 250 L 78.125 250 Z M 78.125 296.875 " fill-opacity="1" fill-rule="nonzero"/></svg>