<svg xmlns="http://www.w3.org/2000/svg" xmlns:xlink="http://www.w3.org/1999/xlink" width="500" zoomAndPan="magnify" viewBox="0 0 375 374.999991" height="500" preserveAspectRatio="xMidYMid meet" version="1.0"><path fill="#000000" d="M 281.25 203.09375 L 203.125 203.09375 L 203.125 281.21875 C 203.125 282.246094 203.023438 283.261719 202.824219 284.265625 C 202.625 285.273438 202.328125 286.25 201.9375 287.199219 C 201.542969 288.144531 201.0625 289.046875 200.492188 289.898438 C 199.921875 290.753906 199.273438 291.542969 198.546875 292.265625 C 197.824219 292.992188 197.035156 293.640625 196.179688 294.210938 C 195.328125 294.78125 194.425781 295.261719 193.480469 295.65625 C 192.53125 296.046875 191.554688 296.34375 190.546875 296.542969 C 189.542969 296.742188 188.527344 296.84375 187.5 296.84375 C 186.472656 296.84375 185.457031 296.742188 184.453125 296.542969 C 183.445312 296.34375 182.46875 296.046875 181.519531 295.65625 C 180.574219 295.261719 179.671875 294.78125 178.820312 294.210938 C 177.964844 293.640625 177.175781 292.992188 176.453125 292.265625 C 175.726562 291.542969 175.078125 290.753906 174.507812 289.898438 C 173.9375 289.046875 173.457031 288.144531 173.0625 287.199219 C 172.671875 286.25 172.375 285.273438 172.175781 284.265625 C 171.976562 283.261719 171.875 282.246094 171.875 281.21875 L 171.875 203.09375 L 93.75 203.09375 C 92.722656 203.09375 91.707031 202.992188 90.703125 202.792969 C 89.695312 202.59375 88.71875 202.296875 87.769531 201.90625 C 86.824219 201.511719 85.921875 201.03125 85.070312 200.460938 C 84.214844 199.890625 83.425781 199.242188 82.703125 198.515625 C 81.976562 197.792969 81.328125 197.003906 80.757812 196.148438 C 80.1875 195.296875 79.707031 194.394531 79.3125 193.449219 C 78.921875 192.5 78.625 191.523438 78.425781 190.515625 C 78.226562 189.511719 78.125 188.496094 78.125 187.46875 C 78.125 186.441406 78.226562 185.425781 78.425781 184.421875 C 78.625 183.414062 78.921875 182.4375 79.3125 181.488281 C 79.707031 180.542969 80.1875 179.640625 80.757812 178.789062 C 81.328125 177.933594 81.976562 177.144531 82.703125 176.421875 C 83.425781 175.695312 84.214844 175.046875 85.070312 174.476562 C 85.921875 173.90625 86.824219 173.425781 87.769531 173.03125 C 88.71875 172.640625 89.695312 172.34375 90.703125 172.144531 C 91.707031 171.945312 92.722656 171.84375 93.75 171.84375 L 171.875 171.84375 L 171.875 93.71875 C 171.875 92.691406 171.976562 91.675781 172.175781 90.671875 C 172.375 89.664062 172.671875 88.6875 173.0625 87.738281 C 173.457031 86.792969 173.9375 85.890625 174.507812 85.039062 C 175.078125 84.183594 175.726562 83.394531 176.453125 82.671875 C 177.175781 81.945312 177.964844 81.296875 178.820312 80.726562 C 179.671875 80.15625 180.574219 79.675781 181.519531 79.28125 C 182.46875 78.890625 183.445312 78.59375 184.453125 78.394531 C 185.457031 78.195312 186.472656 78.09375 187.5 78.09375 C 188.527344 78.09375 189.542969 78.195312 190.546875 78.394531 C 191.554688 78.59375 192.53125 78.890625 193.480469 79.28125 C 194.425781 79.675781 195.328125 80.15625 196.179688 80.726562 C 197.035156 81.296875 197.824219 81.945312 198.546875 82.671875 C 199.273438 83.394531 199.921875 84.183594 200.492188 85.039062 C 201.0625 85.890625 201.542969 86.792969 201.9375 87.738281 C 202.328125 88.6875 202.625 89.664062 202.824219 90.671875 C 203.023438 91.675781 203.125 92.691406 203.125 93.71875 L 203.125 171.84375 L 281.25 171.84375 C 282.277344 171.84375 283.292969 171.945312 284.296875 172.144531 C 285.304688 172.34375 286.28125 172.640625 287.230469 173.03125 C 288.175781 173.425781 289.078125 173.90625 289.929688 174.476562 C 290.785156 175.046875 291.574219 175.695312 292.296875 176.421875 C 293.023438 177.144531 293.671875 177.933594 294.242188 178.789062 C 294.8125 179.640625 295.292969 180.542969 295.6875 181.488281 C 296.078125 182.4375 296.375 183.414062 296.574219 184.421875 C 296.773438 185.425781 296.875 186.441406 296.875 187.46875 C 296.875 188.496094 296.773438 189.511719 296.574219 190.515625 C 296.375 191.523438 296.078125 192.5 295.6875 193.449219 C 295.292969 194.394531 294.8125 195.296875 294.242188 196.148438 C 293.671875 197.003906 293.023438 197.792969 292.296875 198.515625 C 291.574219 199.242188 290.785156 199.890625 289.929688 200.460938 C 289.078125 201.03125 288.175781 201.511719 287.230469 201.90625 C 286.28125 202.296875 285.304688 202.59375 284.296875 202.792969 C 283.292969 202.992188 282.277344 203.09375 281.25 203.09375 " fill-opacity="1" fill-rule="nonzero"/></svg>