<svg xmlns="http://www.w3.org/2000/svg" xmlns:xlink="http://www.w3.org/1999/xlink" width="500" zoomAndPan="magnify" viewBox="0 0 375 374.999991" height="500" preserveAspectRatio="xMidYMid meet" version="1.0"><path fill="#000000" d="M 118.71875 0 C 116.957031 -0.0625 115.210938 0.0507812 113.472656 0.339844 C 111.734375 0.625 110.042969 1.082031 108.394531 1.707031 C 106.75 2.328125 105.179688 3.109375 103.6875 4.042969 C 102.195312 4.980469 100.808594 6.054688 99.53125 7.265625 C 98.890625 7.867188 98.285156 8.496094 97.707031 9.15625 C 97.128906 9.816406 96.585938 10.503906 96.078125 11.21875 C 95.566406 11.929688 95.09375 12.667969 94.65625 13.429688 C 94.222656 14.1875 93.824219 14.96875 93.460938 15.765625 C 93.101562 16.566406 92.78125 17.382812 92.503906 18.214844 C 92.222656 19.042969 91.984375 19.886719 91.789062 20.742188 C 91.589844 21.59375 91.4375 22.457031 91.324219 23.328125 C 91.210938 24.195312 91.144531 25.070312 91.117188 25.945312 C 91.089844 26.824219 91.109375 27.699219 91.167969 28.574219 C 91.226562 29.449219 91.332031 30.316406 91.476562 31.183594 C 91.621094 32.046875 91.8125 32.902344 92.039062 33.75 C 92.269531 34.59375 92.542969 35.425781 92.851562 36.246094 C 93.164062 37.066406 93.515625 37.867188 93.90625 38.652344 C 94.296875 39.4375 94.726562 40.203125 95.191406 40.945312 C 95.660156 41.6875 96.160156 42.40625 96.699219 43.097656 C 97.234375 43.792969 97.804688 44.457031 98.40625 45.09375 L 98.4375 45.125 L 139.21875 88.28125 C 139.671875 88.746094 140.070312 89.253906 140.421875 89.800781 C 140.769531 90.347656 141.0625 90.921875 141.296875 91.527344 C 141.53125 92.132812 141.707031 92.753906 141.816406 93.394531 C 141.925781 94.03125 141.972656 94.675781 141.953125 95.324219 C 141.9375 95.972656 141.855469 96.613281 141.707031 97.246094 C 141.5625 97.878906 141.355469 98.488281 141.085938 99.078125 C 140.816406 99.671875 140.492188 100.226562 140.113281 100.753906 C 139.734375 101.28125 139.304688 101.761719 138.828125 102.203125 C 138.359375 102.648438 137.851562 103.046875 137.304688 103.394531 C 136.757812 103.738281 136.183594 104.027344 135.578125 104.261719 C 134.972656 104.492188 134.351562 104.660156 133.714844 104.769531 C 133.078125 104.878906 132.433594 104.921875 131.785156 104.902344 C 131.140625 104.882812 130.5 104.800781 129.871094 104.652344 C 129.238281 104.507812 128.628906 104.300781 128.039062 104.03125 C 127.453125 103.761719 126.894531 103.441406 126.371094 103.0625 C 125.84375 102.683594 125.363281 102.257812 124.921875 101.78125 L 105.234375 80.96875 C 104.628906 80.332031 103.996094 79.726562 103.332031 79.15625 C 102.667969 78.582031 101.976562 78.039062 101.257812 77.535156 C 100.542969 77.027344 99.800781 76.558594 99.039062 76.125 C 98.277344 75.6875 97.496094 75.292969 96.695312 74.933594 C 95.890625 74.578125 95.074219 74.257812 94.242188 73.980469 C 93.410156 73.703125 92.566406 73.464844 91.710938 73.269531 C 90.855469 73.074219 89.992188 72.921875 89.121094 72.808594 C 88.25 72.695312 87.378906 72.628906 86.5 72.601562 C 85.621094 72.574219 84.746094 72.589844 83.871094 72.652344 C 82.996094 72.710938 82.125 72.8125 81.257812 72.957031 C 80.394531 73.097656 79.535156 73.285156 78.6875 73.511719 C 77.839844 73.742188 77.007812 74.007812 76.183594 74.320312 C 75.363281 74.628906 74.558594 74.976562 73.773438 75.363281 C 72.984375 75.75 72.21875 76.175781 71.472656 76.636719 C 70.726562 77.101562 70.003906 77.597656 69.304688 78.132812 C 68.609375 78.664062 67.9375 79.230469 67.296875 79.828125 C 66.65625 80.425781 66.046875 81.058594 65.46875 81.71875 C 64.890625 82.375 64.34375 83.0625 63.835938 83.777344 C 63.324219 84.488281 62.847656 85.226562 62.410156 85.984375 C 61.972656 86.746094 61.574219 87.527344 61.210938 88.324219 C 60.851562 89.125 60.527344 89.941406 60.246094 90.769531 C 59.964844 91.601562 59.726562 92.445312 59.527344 93.300781 C 59.332031 94.152344 59.175781 95.015625 59.0625 95.886719 C 58.949219 96.757812 58.878906 97.628906 58.851562 98.507812 C 58.824219 99.382812 58.839844 100.257812 58.898438 101.136719 C 58.957031 102.011719 59.058594 102.878906 59.203125 103.746094 C 59.351562 104.609375 59.535156 105.46875 59.765625 106.3125 C 59.996094 107.160156 60.265625 107.996094 60.578125 108.816406 C 60.886719 109.636719 61.238281 110.4375 61.628906 111.222656 C 62.019531 112.007812 62.449219 112.773438 62.914062 113.515625 C 63.378906 114.261719 63.878906 114.980469 64.417969 115.671875 C 64.953125 116.367188 65.523438 117.035156 66.125 117.671875 L 66.125 117.703125 L 95.5 148.765625 C 95.949219 149.234375 96.34375 149.742188 96.691406 150.289062 C 97.039062 150.835938 97.328125 151.410156 97.5625 152.015625 C 97.792969 152.621094 97.964844 153.242188 98.074219 153.882812 C 98.183594 154.519531 98.226562 155.164062 98.207031 155.8125 C 98.1875 156.460938 98.105469 157.097656 97.960938 157.730469 C 97.816406 158.359375 97.609375 158.972656 97.339844 159.5625 C 97.074219 160.152344 96.75 160.710938 96.371094 161.238281 C 95.996094 161.761719 95.566406 162.246094 95.09375 162.6875 C 94.625 163.136719 94.121094 163.535156 93.574219 163.882812 C 93.027344 164.230469 92.449219 164.519531 91.847656 164.753906 C 91.242188 164.988281 90.621094 165.15625 89.980469 165.265625 C 89.34375 165.375 88.699219 165.417969 88.050781 165.398438 C 87.40625 165.378906 86.765625 165.296875 86.132812 165.148438 C 85.503906 165.003906 84.894531 164.792969 84.304688 164.523438 C 83.714844 164.257812 83.15625 163.929688 82.632812 163.550781 C 82.109375 163.171875 81.625 162.742188 81.1875 162.265625 L 81.140625 162.265625 L 70.4375 150.875 L 70.21875 150.5625 C 69.613281 149.929688 68.976562 149.324219 68.3125 148.753906 C 67.648438 148.183594 66.957031 147.644531 66.242188 147.136719 C 65.523438 146.632812 64.785156 146.164062 64.023438 145.730469 C 63.257812 145.300781 62.476562 144.90625 61.675781 144.546875 C 60.875 144.191406 60.058594 143.875 59.226562 143.597656 C 58.394531 143.320312 57.550781 143.082031 56.699219 142.886719 C 55.84375 142.691406 54.980469 142.539062 54.109375 142.429688 C 53.242188 142.316406 52.367188 142.25 51.492188 142.222656 C 50.613281 142.195312 49.738281 142.210938 48.863281 142.269531 C 47.988281 142.328125 47.121094 142.429688 46.253906 142.574219 C 45.390625 142.71875 44.535156 142.902344 43.6875 143.128906 C 42.839844 143.355469 42.007812 143.625 41.183594 143.929688 C 40.363281 144.238281 39.558594 144.585938 38.773438 144.972656 C 37.984375 145.359375 37.21875 145.78125 36.472656 146.242188 C 35.726562 146.703125 35.003906 147.199219 34.308594 147.730469 C 33.609375 148.261719 32.941406 148.824219 32.296875 149.421875 C 31.65625 150.023438 31.046875 150.652344 30.46875 151.3125 C 29.890625 151.972656 29.34375 152.660156 28.832031 153.371094 C 28.320312 154.085938 27.847656 154.824219 27.410156 155.582031 C 26.972656 156.34375 26.570312 157.125 26.210938 157.925781 C 25.847656 158.722656 25.527344 159.539062 25.246094 160.371094 C 24.964844 161.203125 24.726562 162.046875 24.527344 162.902344 C 24.328125 163.757812 24.171875 164.617188 24.0625 165.488281 C 23.949219 166.359375 23.878906 167.234375 23.851562 168.109375 C 23.824219 168.988281 23.839844 169.863281 23.898438 170.742188 C 23.960938 171.617188 24.0625 172.488281 24.207031 173.351562 C 24.351562 174.21875 24.539062 175.074219 24.769531 175.921875 C 25 176.769531 25.269531 177.601562 25.582031 178.421875 C 25.894531 179.242188 26.246094 180.046875 26.636719 180.832031 C 27.027344 181.617188 27.457031 182.382812 27.925781 183.125 C 28.390625 183.871094 28.894531 184.589844 29.429688 185.285156 C 29.96875 185.976562 30.539062 186.644531 31.140625 187.28125 L 66.34375 225.46875 L 66.4375 225.59375 L 71.9375 231.265625 C 71.980469 230.640625 72.046875 230.03125 72.140625 229.4375 C 71.851562 231.515625 71.804688 233.601562 71.996094 235.691406 C 72.1875 237.777344 72.613281 239.820312 73.273438 241.8125 C 73.933594 243.804688 74.8125 245.691406 75.910156 247.484375 C 77.007812 249.273438 78.292969 250.914062 79.765625 252.40625 L 81.96875 254.640625 L 102.125 274.640625 C 112.75 285.265625 130.171875 285.265625 140.78125 274.640625 L 148.953125 266.484375 L 173.765625 241.765625 L 190.984375 224.734375 L 218.640625 197.140625 L 258.203125 157.765625 L 258.203125 157.71875 C 258.832031 157.085938 259.429688 156.425781 259.992188 155.738281 C 260.554688 155.046875 261.085938 154.332031 261.578125 153.589844 C 262.074219 152.851562 262.527344 152.085938 262.949219 151.300781 C 263.367188 150.515625 263.746094 149.710938 264.085938 148.886719 C 264.425781 148.0625 264.726562 147.226562 264.984375 146.371094 C 265.242188 145.519531 265.457031 144.65625 265.628906 143.78125 C 265.804688 142.910156 265.933594 142.027344 266.019531 141.140625 C 266.109375 140.257812 266.152344 139.367188 266.152344 138.476562 C 266.152344 137.585938 266.109375 136.695312 266.019531 135.8125 C 265.933594 134.925781 265.804688 134.042969 265.628906 133.171875 C 265.457031 132.296875 265.242188 131.433594 264.984375 130.582031 C 264.726562 129.726562 264.425781 128.890625 264.085938 128.066406 C 263.746094 127.242188 263.367188 126.4375 262.949219 125.652344 C 262.527344 124.867188 262.074219 124.101562 261.578125 123.363281 C 261.085938 122.621094 260.554688 121.90625 259.992188 121.214844 C 259.429688 120.527344 258.832031 119.867188 258.203125 119.234375 L 251.28125 112.328125 C 252.242188 111.761719 253.242188 111.277344 254.285156 110.875 C 255.328125 110.472656 256.394531 110.160156 257.488281 109.9375 C 258.582031 109.710938 259.683594 109.578125 260.800781 109.535156 C 261.917969 109.492188 263.027344 109.542969 264.132812 109.6875 C 265.242188 109.828125 266.328125 110.058594 267.398438 110.382812 C 268.46875 110.703125 269.503906 111.109375 270.503906 111.605469 C 271.503906 112.097656 272.457031 112.667969 273.367188 113.320312 C 274.273438 113.972656 275.117188 114.691406 275.90625 115.484375 L 292.421875 131.953125 C 306.546875 146.09375 306.5625 168.71875 292.453125 182.703125 L 292.453125 182.734375 L 237.828125 237.109375 L 237.796875 237.109375 C 229.046875 245.859375 229.046875 260.1875 237.859375 268.828125 L 245.734375 276.609375 L 235.171875 287.140625 C 234.820312 287.488281 234.503906 287.867188 234.222656 288.277344 C 233.941406 288.683594 233.703125 289.113281 233.5 289.566406 C 233.300781 290.019531 233.144531 290.488281 233.03125 290.972656 C 232.917969 291.453125 232.847656 291.941406 232.828125 292.4375 C 232.804688 292.933594 232.828125 293.425781 232.898438 293.914062 C 232.96875 294.40625 233.082031 294.886719 233.242188 295.355469 C 233.398438 295.824219 233.601562 296.273438 233.84375 296.707031 C 234.085938 297.136719 234.367188 297.542969 234.6875 297.921875 L 237.03125 300.8125 L 237.15625 300.8125 L 276.03125 261.90625 L 273.15625 259.5625 C 272.371094 258.921875 271.5 258.449219 270.535156 258.136719 C 269.574219 257.824219 268.589844 257.695312 267.578125 257.75 C 266.597656 257.816406 265.65625 258.054688 264.761719 258.457031 C 263.863281 258.859375 263.0625 259.40625 262.359375 260.09375 L 252.234375 270.203125 L 244.265625 262.328125 L 244.234375 262.328125 C 243.613281 261.714844 243.054688 261.046875 242.566406 260.320312 C 242.078125 259.597656 241.664062 258.832031 241.328125 258.023438 C 240.992188 257.21875 240.738281 256.386719 240.570312 255.527344 C 240.398438 254.671875 240.316406 253.804688 240.316406 252.933594 C 240.320312 252.058594 240.410156 251.191406 240.585938 250.335938 C 240.761719 249.480469 241.019531 248.652344 241.363281 247.847656 C 241.703125 247.042969 242.121094 246.277344 242.617188 245.558594 C 243.109375 244.835938 243.671875 244.171875 244.296875 243.5625 L 298.890625 189.1875 C 299.933594 188.144531 300.925781 187.054688 301.863281 185.917969 C 302.796875 184.777344 303.675781 183.59375 304.496094 182.371094 C 305.316406 181.144531 306.074219 179.882812 306.773438 178.582031 C 307.46875 177.28125 308.097656 175.949219 308.664062 174.585938 C 309.230469 173.226562 309.726562 171.839844 310.15625 170.429688 C 310.585938 169.015625 310.945312 167.589844 311.234375 166.140625 C 311.519531 164.695312 311.738281 163.238281 311.882812 161.773438 C 312.027344 160.304688 312.101562 158.832031 312.101562 157.359375 C 312.101562 155.882812 312.03125 154.410156 311.886719 152.945312 C 311.742188 151.476562 311.527344 150.019531 311.242188 148.574219 C 310.953125 147.125 310.597656 145.699219 310.167969 144.285156 C 309.742188 142.875 309.246094 141.488281 308.679688 140.125 C 308.117188 138.761719 307.488281 137.429688 306.792969 136.128906 C 306.097656 134.828125 305.339844 133.566406 304.519531 132.339844 C 303.703125 131.113281 302.824219 129.929688 301.890625 128.789062 C 300.953125 127.648438 299.964844 126.558594 298.921875 125.515625 L 282.359375 109.015625 C 280.996094 107.652344 279.507812 106.433594 277.90625 105.363281 C 276.300781 104.292969 274.605469 103.386719 272.824219 102.652344 C 271.039062 101.914062 269.203125 101.359375 267.3125 100.984375 C 265.417969 100.609375 263.507812 100.421875 261.578125 100.421875 C 255.640625 100.421875 249.703125 102.234375 244.65625 105.78125 L 235.84375 96.984375 C 234.574219 95.71875 233.191406 94.589844 231.699219 93.597656 C 230.207031 92.601562 228.632812 91.765625 226.972656 91.085938 C 225.3125 90.402344 223.605469 89.890625 221.84375 89.546875 C 220.085938 89.207031 218.308594 89.039062 216.515625 89.046875 L 216.515625 89.015625 C 215.445312 89.035156 214.375 89.105469 213.3125 89.234375 L 198.671875 73.140625 L 198.546875 73.0625 L 178.546875 51.84375 L 137.5 8.40625 C 136.285156 7.132812 134.960938 5.984375 133.519531 4.96875 C 132.082031 3.953125 130.558594 3.085938 128.953125 2.367188 C 127.34375 1.652344 125.679688 1.09375 123.964844 0.703125 C 122.25 0.308594 120.511719 0.0859375 118.75 0.03125 Z M 118.4375 9.921875 C 120.6875 9.996094 122.832031 10.496094 124.882812 11.429688 C 126.929688 12.359375 128.71875 13.648438 130.25 15.296875 L 171.34375 58.703125 L 191.3125 79.84375 L 202.9375 92.65625 C 200.828125 93.84375 198.917969 95.289062 197.203125 97 L 136.109375 157.859375 L 79.765625 213.90625 C 77.832031 215.886719 76.230469 218.105469 74.953125 220.5625 L 75.109375 220.234375 L 73.640625 218.703125 L 38.4375 180.53125 L 38.375 180.5 C 37.988281 180.101562 37.625 179.6875 37.28125 179.253906 C 36.9375 178.824219 36.617188 178.375 36.316406 177.90625 C 36.019531 177.441406 35.742188 176.964844 35.492188 176.472656 C 35.242188 175.980469 35.015625 175.476562 34.816406 174.960938 C 34.613281 174.445312 34.441406 173.921875 34.292969 173.386719 C 34.144531 172.855469 34.019531 172.316406 33.925781 171.773438 C 33.832031 171.226562 33.765625 170.679688 33.726562 170.128906 C 33.683594 169.574219 33.671875 169.023438 33.6875 168.472656 C 33.703125 167.917969 33.746094 167.367188 33.816406 166.820312 C 33.886719 166.269531 33.984375 165.726562 34.109375 165.1875 C 34.234375 164.648438 34.382812 164.117188 34.5625 163.59375 C 34.738281 163.070312 34.941406 162.558594 35.171875 162.054688 C 35.398438 161.550781 35.652344 161.058594 35.929688 160.582031 C 36.207031 160.105469 36.511719 159.640625 36.835938 159.191406 C 37.15625 158.746094 37.503906 158.316406 37.871094 157.902344 C 38.238281 157.488281 38.625 157.09375 39.03125 156.71875 L 39.09375 156.6875 C 39.496094 156.308594 39.914062 155.949219 40.351562 155.609375 C 40.785156 155.269531 41.238281 154.953125 41.707031 154.65625 C 42.175781 154.363281 42.65625 154.09375 43.148438 153.84375 C 43.644531 153.597656 44.148438 153.375 44.664062 153.175781 C 45.179688 152.980469 45.707031 152.808594 46.238281 152.660156 C 46.773438 152.515625 47.3125 152.394531 47.855469 152.300781 C 48.402344 152.207031 48.949219 152.140625 49.5 152.101562 C 50.050781 152.0625 50.605469 152.050781 51.15625 152.066406 C 51.707031 152.082031 52.257812 152.121094 52.808594 152.191406 C 53.355469 152.261719 53.898438 152.355469 54.4375 152.476562 C 54.976562 152.601562 55.507812 152.75 56.035156 152.921875 C 56.558594 153.097656 57.074219 153.296875 57.578125 153.523438 C 58.082031 153.75 58.574219 153.996094 59.054688 154.273438 C 59.535156 154.546875 60 154.839844 60.453125 155.160156 C 60.902344 155.480469 61.339844 155.820312 61.757812 156.183594 C 62.175781 156.546875 62.574219 156.925781 62.953125 157.328125 L 62.984375 157.515625 L 73.9375 169.078125 C 74.382812 169.550781 74.847656 169.996094 75.335938 170.421875 C 75.824219 170.847656 76.332031 171.25 76.859375 171.625 C 77.386719 172 77.933594 172.347656 78.492188 172.671875 C 79.054688 172.992188 79.632812 173.285156 80.222656 173.554688 C 80.8125 173.820312 81.414062 174.054688 82.027344 174.261719 C 82.640625 174.46875 83.265625 174.644531 83.894531 174.792969 C 84.527344 174.9375 85.160156 175.050781 85.804688 175.136719 C 86.445312 175.21875 87.089844 175.273438 87.738281 175.292969 C 88.386719 175.3125 89.03125 175.300781 89.679688 175.257812 C 90.324219 175.214844 90.964844 175.140625 91.605469 175.035156 C 92.246094 174.929688 92.875 174.792969 93.503906 174.628906 C 94.128906 174.460938 94.742188 174.261719 95.351562 174.035156 C 95.957031 173.808594 96.550781 173.550781 97.128906 173.265625 C 97.710938 172.976562 98.277344 172.664062 98.828125 172.324219 C 99.378906 171.980469 99.910156 171.613281 100.425781 171.222656 C 100.9375 170.828125 101.433594 170.410156 101.90625 169.96875 C 102.375 169.523438 102.824219 169.058594 103.25 168.570312 C 103.675781 168.082031 104.074219 167.574219 104.449219 167.042969 C 104.824219 166.515625 105.175781 165.972656 105.496094 165.410156 C 105.816406 164.847656 106.113281 164.273438 106.378906 163.683594 C 106.644531 163.089844 106.878906 162.488281 107.085938 161.875 C 107.292969 161.261719 107.46875 160.640625 107.613281 160.007812 C 107.757812 159.378906 107.875 158.742188 107.957031 158.097656 C 108.039062 157.457031 108.09375 156.8125 108.113281 156.164062 C 108.132812 155.519531 108.121094 154.871094 108.078125 154.226562 C 108.035156 153.578125 107.960938 152.9375 107.855469 152.296875 C 107.75 151.660156 107.613281 151.027344 107.445312 150.402344 C 107.277344 149.777344 107.078125 149.160156 106.851562 148.554688 C 106.621094 147.949219 106.363281 147.355469 106.078125 146.773438 C 105.792969 146.191406 105.480469 145.628906 105.136719 145.078125 C 104.796875 144.527344 104.429688 143.996094 104.035156 143.480469 C 103.640625 142.96875 103.222656 142.472656 102.78125 142 L 102.75 142 L 73.375 110.921875 L 73.375 110.890625 C 72.988281 110.496094 72.621094 110.082031 72.277344 109.648438 C 71.933594 109.214844 71.609375 108.765625 71.308594 108.300781 C 71.007812 107.835938 70.734375 107.359375 70.480469 106.867188 C 70.230469 106.371094 70 105.867188 69.800781 105.355469 C 69.597656 104.839844 69.421875 104.3125 69.273438 103.78125 C 69.125 103.25 69.003906 102.710938 68.90625 102.164062 C 68.8125 101.621094 68.746094 101.070312 68.703125 100.519531 C 68.664062 99.964844 68.652344 99.414062 68.667969 98.859375 C 68.683594 98.308594 68.726562 97.757812 68.796875 97.207031 C 68.867188 96.660156 68.964844 96.113281 69.089844 95.574219 C 69.214844 95.035156 69.367188 94.503906 69.542969 93.980469 C 69.722656 93.457031 69.925781 92.945312 70.15625 92.441406 C 70.386719 91.9375 70.640625 91.445312 70.917969 90.96875 C 71.199219 90.492188 71.5 90.027344 71.824219 89.582031 C 72.152344 89.132812 72.5 88.703125 72.867188 88.289062 C 73.234375 87.875 73.625 87.484375 74.03125 87.109375 C 74.433594 86.726562 74.855469 86.363281 75.292969 86.023438 C 75.730469 85.683594 76.183594 85.363281 76.65625 85.066406 C 77.125 84.769531 77.609375 84.496094 78.105469 84.25 C 78.601562 84 79.109375 83.777344 79.628906 83.578125 C 80.148438 83.378906 80.675781 83.207031 81.210938 83.058594 C 81.746094 82.914062 82.289062 82.792969 82.835938 82.703125 C 83.382812 82.609375 83.9375 82.542969 84.488281 82.503906 C 85.042969 82.464844 85.597656 82.453125 86.152344 82.472656 C 86.710938 82.488281 87.261719 82.53125 87.8125 82.601562 C 88.363281 82.671875 88.910156 82.769531 89.453125 82.894531 C 89.992188 83.019531 90.527344 83.171875 91.054688 83.347656 C 91.582031 83.527344 92.097656 83.730469 92.601562 83.957031 C 93.109375 84.1875 93.605469 84.441406 94.085938 84.71875 C 94.566406 84.996094 95.03125 85.296875 95.484375 85.621094 C 95.9375 85.941406 96.371094 86.289062 96.789062 86.652344 C 97.207031 87.019531 97.605469 87.40625 97.984375 87.8125 L 117.609375 108.59375 C 118.054688 109.066406 118.519531 109.515625 119.007812 109.941406 C 119.496094 110.367188 120.003906 110.765625 120.53125 111.144531 C 121.0625 111.519531 121.605469 111.867188 122.167969 112.191406 C 122.730469 112.511719 123.304688 112.808594 123.898438 113.074219 C 124.488281 113.339844 125.089844 113.578125 125.703125 113.785156 C 126.316406 113.992188 126.941406 114.167969 127.570312 114.3125 C 128.203125 114.460938 128.839844 114.574219 129.480469 114.660156 C 130.125 114.742188 130.769531 114.796875 131.417969 114.816406 C 132.066406 114.835938 132.710938 114.824219 133.359375 114.78125 C 134.003906 114.738281 134.648438 114.664062 135.289062 114.558594 C 135.925781 114.453125 136.558594 114.316406 137.1875 114.148438 C 137.8125 113.980469 138.429688 113.785156 139.035156 113.554688 C 139.640625 113.328125 140.234375 113.070312 140.816406 112.785156 C 141.398438 112.496094 141.964844 112.183594 142.515625 111.84375 C 143.066406 111.5 143.597656 111.132812 144.113281 110.738281 C 144.625 110.34375 145.121094 109.925781 145.59375 109.484375 C 146.0625 109.039062 146.511719 108.574219 146.9375 108.082031 C 147.359375 107.59375 147.761719 107.085938 148.136719 106.558594 C 148.511719 106.03125 148.859375 105.484375 149.179688 104.925781 C 149.503906 104.363281 149.796875 103.785156 150.0625 103.195312 C 150.328125 102.605469 150.5625 102.003906 150.769531 101.386719 C 150.972656 100.773438 151.148438 100.152344 151.296875 99.519531 C 151.441406 98.890625 151.554688 98.253906 151.636719 97.609375 C 151.722656 96.96875 151.773438 96.324219 151.792969 95.675781 C 151.8125 95.03125 151.800781 94.382812 151.757812 93.738281 C 151.714844 93.089844 151.640625 92.449219 151.53125 91.808594 C 151.425781 91.171875 151.289062 90.539062 151.121094 89.914062 C 150.953125 89.289062 150.753906 88.671875 150.527344 88.066406 C 150.296875 87.460938 150.039062 86.867188 149.753906 86.289062 C 149.46875 85.707031 149.152344 85.140625 148.8125 84.589844 C 148.46875 84.042969 148.101562 83.511719 147.707031 82.996094 C 147.3125 82.480469 146.894531 81.988281 146.453125 81.515625 L 146.421875 81.515625 L 105.640625 38.34375 C 105.253906 37.949219 104.890625 37.535156 104.546875 37.101562 C 104.203125 36.667969 103.878906 36.222656 103.582031 35.757812 C 103.28125 35.292969 103.007812 34.8125 102.757812 34.320312 C 102.503906 33.832031 102.277344 33.328125 102.078125 32.8125 C 101.875 32.296875 101.703125 31.773438 101.554688 31.242188 C 101.40625 30.710938 101.28125 30.171875 101.1875 29.628906 C 101.09375 29.082031 101.027344 28.535156 100.984375 27.984375 C 100.945312 27.433594 100.933594 26.882812 100.949219 26.328125 C 100.964844 25.777344 101.007812 25.226562 101.078125 24.679688 C 101.148438 24.132812 101.246094 23.589844 101.371094 23.050781 C 101.496094 22.511719 101.644531 21.980469 101.824219 21.457031 C 102 20.9375 102.203125 20.421875 102.433594 19.921875 C 102.664062 19.417969 102.917969 18.925781 103.195312 18.449219 C 103.472656 17.972656 103.773438 17.511719 104.097656 17.0625 C 104.421875 16.617188 104.769531 16.1875 105.136719 15.773438 C 105.503906 15.359375 105.890625 14.96875 106.296875 14.59375 C 107.925781 13.035156 109.792969 11.851562 111.898438 11.039062 C 114.003906 10.230469 116.183594 9.859375 118.4375 9.921875 M 216.515625 98.921875 C 218.75 98.921875 220.96875 99.390625 223.046875 100.234375 C 220.957031 99.367188 218.777344 98.929688 216.515625 98.921875 M 223.390625 100.421875 C 225.371094 101.253906 227.171875 102.464844 228.796875 104.046875 C 227.226562 102.492188 225.425781 101.28125 223.390625 100.421875 M 74.640625 221.234375 C 73.496094 223.585938 72.691406 226.050781 72.234375 228.625 C 72.671875 226.042969 73.472656 223.578125 74.640625 221.234375 M 283.96875 268.6875 L 244.015625 308.640625 L 288.515625 362.3125 C 289.191406 363.09375 289.921875 363.875 290.703125 364.65625 C 304.375 378.296875 326.90625 378.5625 340.796875 364.65625 C 341.664062 363.792969 342.484375 362.890625 343.257812 361.941406 C 344.03125 360.992188 344.753906 360.007812 345.421875 358.984375 C 346.09375 357.960938 346.710938 356.90625 347.269531 355.820312 C 347.828125 354.734375 348.332031 353.621094 348.777344 352.480469 C 349.21875 351.339844 349.601562 350.179688 349.925781 349 C 350.25 347.820312 350.507812 346.628906 350.707031 345.421875 C 350.90625 344.214844 351.042969 343 351.113281 341.777344 C 351.183594 340.558594 351.191406 339.335938 351.136719 338.113281 C 351.082031 336.894531 350.960938 335.675781 350.78125 334.46875 C 350.597656 333.257812 350.351562 332.0625 350.042969 330.878906 C 349.738281 329.695312 349.367188 328.53125 348.9375 327.382812 C 348.511719 326.238281 348.023438 325.117188 347.476562 324.023438 C 346.929688 322.929688 346.328125 321.867188 345.671875 320.835938 C 345.015625 319.804688 344.304688 318.808594 343.546875 317.851562 C 342.785156 316.894531 341.976562 315.976562 341.121094 315.105469 C 340.265625 314.230469 339.363281 313.40625 338.421875 312.625 Z M 283.96875 268.6875 " fill-opacity="1" fill-rule="nonzero"/></svg>