<svg xmlns="http://www.w3.org/2000/svg" xmlns:xlink="http://www.w3.org/1999/xlink" width="500" zoomAndPan="magnify" viewBox="0 0 375 374.999991" height="500" preserveAspectRatio="xMidYMid meet" version="1.0"><path fill="#000000" d="M 69.109375 85.9375 L 69.109375 70.3125 L 305.890625 70.3125 L 305.890625 85.9375 Z M 70.3125 304.6875 L 70.3125 210.9375 L 51.09375 210.9375 L 51.09375 195.3125 L 69.109375 117.1875 L 305.890625 117.1875 L 323.921875 195.3125 L 323.921875 210.9375 L 304.6875 210.9375 L 304.6875 304.6875 L 289.0625 304.6875 L 289.0625 210.9375 L 210.9375 210.9375 L 210.9375 304.6875 Z M 85.9375 289.0625 L 195.3125 289.0625 L 195.3125 210.9375 L 85.9375 210.9375 Z M 66.875 195.3125 L 308.125 195.3125 Z M 66.875 195.3125 L 308.125 195.3125 L 293.625 132.8125 L 81.375 132.8125 Z M 66.875 195.3125 " fill-opacity="1" fill-rule="nonzero"/></svg>