<svg xmlns="http://www.w3.org/2000/svg" id="business-report-document" viewBox="0 0 64 64">
  <path d="m51,4h-30l-10,10v44c0,1.1.9,2,2,2h38c1.1,0,2-.9,2-2V6c0-1.1-.9-2-2-2Z" style="fill:#f1f2f2"></path>
  <rect width="5" height="7" x="16" y="30" rx="1" ry="1" style="fill:#4cb050"></rect>
  <rect width="5" height="11" x="25" y="26" rx="1" ry="1" style="fill:#4cb050"></rect>
  <rect width="5" height="15" x="34" y="22" rx="1" ry="1" style="fill:#4cb050"></rect>
  <rect width="5" height="19" x="43" y="18" rx="1" ry="1" style="fill:#4cb050"></rect>
  <path d="m30,48h-4c0-1.66-1.34-3-3-3v-4c3.87,0,7,3.13,7,7Z" style="fill:#fe5722"></path>
  <path d="m30,48c0,3.87-3.13,7-7,7s-7-3.13-7-7,3.13-7,7-7v4c-1.66,0-3,1.34-3,3s1.34,3,3,3,3-1.34,3-3h4Z" style="fill:#fec107"></path>
  <polygon points="11 14 21 14 21 4 11 14" style="fill:#2196f3"></polygon>
  <path d="M34 10h14c.55 0 1-.45 1-1s-.45-1-1-1h-14c-.55 0-1 .45-1 1s.45 1 1 1ZM48 12h-7c-.55 0-1 .45-1 1s.45 1 1 1h7c.55 0 1-.45 1-1s-.45-1-1-1ZM48 42h-14c-.55 0-1 .45-1 1s.45 1 1 1h14c.55 0 1-.45 1-1s-.45-1-1-1ZM48 47h-14c-.55 0-1 .45-1 1s.45 1 1 1h14c.55 0 1-.45 1-1s-.45-1-1-1ZM48 52h-14c-.55 0-1 .45-1 1s.45 1 1 1h14c.55 0 1-.45 1-1s-.45-1-1-1ZM30 18h-14c-.55 0-1 .45-1 1s.45 1 1 1h14c.55 0 1-.45 1-1s-.45-1-1-1ZM22 22h-6c-.55 0-1 .45-1 1s.45 1 1 1h6c.55 0 1-.45 1-1s-.45-1-1-1Z" style="fill:#d1d3d4"></path>
</svg>
