<svg xmlns="http://www.w3.org/2000/svg" viewBox="0 0 64 64" id="location-pointers">
  <path fill="#c6c6c6" d="M59.62 12.72c2.42 0 4.38 1.96 4.38 4.38v36.3c0-2.41-1.96-4.37-4.38-4.37h-4.38V12.72h4.38zm-50.87 0v36.31H4.38c-1.21 0-2.3.49-3.09 1.28A4.32 4.32 0 0 0 0 53.4V17.1c0-2.42 1.96-4.38 4.38-4.38h4.37z"></path>
  <path fill="#eff0ee" d="M64 53.4c0 2.42-1.96 4.38-4.38 4.38H4.38C1.96 57.77 0 55.81 0 53.4c0-1.21.49-2.3 1.28-3.09s1.88-1.28 3.09-1.28h4.38V17.26h46.5v31.76h4.38c2.41 0 4.37 1.96 4.37 4.38z"></path>
  <path fill="#cbcbca" d="M40.47 50.29a.73.73 0 0 1-.35-.09l-15.76-8.51a.696.696 0 0 1-.37-.56c-.03-.24.07-.47.25-.62l15.22-13.09a.733.733 0 0 1 1.02.08c.13.15.19.33.17.52-.01.19-.1.37-.25.49l-14.42 12.4 14.85 8.01a.718.718 0 0 1 .29.98c-.14.24-.38.39-.65.39z"></path>
  <path fill="#9b7fac" d="M44.89 43.43c0-2.25-1.82-4.07-4.07-4.07s-4.07 1.82-4.07 4.07c0 1.76 1.12 3.26 2.69 3.83l1.38 3.5 1.38-3.5a4.078 4.078 0 0 0 2.69-3.83z"></path>
  <circle cx="40.82" cy="43.43" r="2.78" fill="#e2e2e2"></circle>
  <path fill="#32abda" d="M29.33 32.87c0-2.73-2.22-4.95-4.95-4.95s-4.95 2.22-4.95 4.95c0 2.14 1.37 3.97 3.27 4.65l1.68 4.26 1.68-4.26c1.9-.68 3.27-2.5 3.27-4.65z"></path>
  <path fill="#e2e2e2" d="M27.77 32.87c0 1.87-1.52 3.39-3.39 3.39s-3.39-1.52-3.39-3.39 1.52-3.39 3.39-3.39 3.39 1.52 3.39 3.39z"></path>
  <path fill="#d85446" d="M48.3 14.61c0-4.63-3.75-8.38-8.38-8.38-4.63 0-8.38 3.75-8.38 8.38 0 3.63 2.31 6.72 5.54 7.88l2.84 7.21 2.84-7.21a8.373 8.373 0 0 0 5.54-7.88z"></path>
  <path fill="#e2e2e2" d="M45.65 14.61a5.73 5.73 0 1 1-5.73-5.73 5.73 5.73 0 0 1 5.73 5.73z"></path>
</svg>
