<svg xmlns="http://www.w3.org/2000/svg" xml:space="preserve" width="110" height="110" version="1.0" id="checklist">
  <path fill="#FFF" d="M23 26.84A3.84 3.84 0 0 1 26.84 23H55l16 13.44v46.72A3.84 3.84 0 0 1 67.16 87H26.84A3.84 3.84 0 0 1 23 83.16V26.84z"></path>
  <path fill="#F0F1F1" d="M55 23v9.6a3.84 3.84 0 0 0 3.84 3.84H71L55 23z"></path>
  <path fill="#F4D0A1" d="M77 41.5 82 31l5 10.5V80H77z"></path>
  <path fill="#EDBC7C" d="M87 47v-5.5L82 31v16z"></path>
  <path fill="#F79392" d="M87 84a3 3 0 0 1-3 3h-4a3 3 0 0 1-3-3v-2h10v2z"></path>
  <path fill="#E2E4E5" d="M62 45c0 .55-.45 1-1 1H46c-.55 0-1-.45-1-1s.45-1 1-1h15c.55 0 1 .45 1 1zM56 50c0 .55-.45 1-1 1h-9c-.55 0-1-.45-1-1s.45-1 1-1h9c.55 0 1 .45 1 1zM62 58c0 .55-.45 1-1 1H46c-.55 0-1-.45-1-1s.45-1 1-1h15c.55 0 1 .45 1 1zM56 63c0 .55-.45 1-1 1h-9c-.55 0-1-.45-1-1s.45-1 1-1h9c.55 0 1 .45 1 1zM62 71c0 .55-.45 1-1 1H46c-.55 0-1-.45-1-1s.45-1 1-1h15c.55 0 1 .45 1 1zM56 76c0 .55-.45 1-1 1h-9c-.55 0-1-.45-1-1s.45-1 1-1h9c.55 0 1 .45 1 1z"></path>
  <path fill="#17B198" d="m35.067 52-3.774-3.774a.999.999 0 1 1 1.414-1.414l2.226 2.226 4.299-5.159a.999.999 0 1 1 1.536 1.28L35.067 52zM35.067 65l-3.774-3.774a.999.999 0 1 1 1.414-1.414l2.226 2.226 4.299-5.159a.999.999 0 1 1 1.536 1.28L35.067 65zM35.067 78l-3.774-3.774a.999.999 0 1 1 1.414-1.414l2.226 2.226 4.299-5.159a.999.999 0 1 1 1.536 1.28L35.067 78z"></path>
  <path fill="#FACB1B" d="M77 79h10v3H77z"></path>
  <path fill="#FBE158" d="M77 80h5v2h-5z"></path>
  <path fill="#3E3E3F" d="m82.013 30.984-1.857 3.899c.512.678 1.152 1.101 1.857 1.101s1.345-.422 1.857-1.101l-1.857-3.899z"></path>
  <path fill="#0484AB" d="M84.5 43a2.5 2.5 0 0 1-2.413-1.845c-.026-.097-.147-.097-.173 0a2.502 2.502 0 0 1-4.736.274.092.092 0 0 0-.178.035V80h10V41.464a.092.092 0 0 0-.178-.034A2.502 2.502 0 0 1 84.5 43z"></path>
  <path fill="#21B2D1" d="M77 80V41.493c0-.111.147-.139.19-.036a2.5 2.5 0 0 0 4.727-.316c.014-.052.083-.045.083.009V80h-5z"></path>
  <path fill="#F7B4B4" d="M77 82v2a3 3 0 0 0 3 3h2v-5h-5z"></path>
</svg>
