<svg xmlns="http://www.w3.org/2000/svg" viewBox="0 0 64 64" id="store">
  <path fill="#f9f9f9" d="M5.07 9.48h53.86v49.91H5.07z"></path>
  <path fill="#f0bb73" d="M11.23 13.48h5.95v5.95h-5.95zM23.1 13.48h5.95v5.95H23.1zM34.96 13.48h5.95v5.95h-5.95zM46.82 13.48h5.95v5.95h-5.95z"></path>
  <path fill="#d3d3d3" d="M39.09 59.39H24.91V48.3a7.09 7.09 0 0 1 14.18 0v11.09z"></path>
  <path fill="#365470" d="M5.07 4.61h53.86v4.87H5.07z"></path>
  <path fill="#8e77a5" d="M19.47 43.99H8.95c-.2 0-.37.16-.37.37v7.87c0 .2.16.37.37.37h10.53c.2 0 .37-.17.37-.37v-7.87a.384.384 0 0 0-.38-.37zm-5.63 7.87H9.31v-3.2h4.53v3.2zm0-3.93H9.31v-3.2h4.53v3.2zm5.26 3.93h-4.53v-3.2h4.53v3.2zm0-3.93h-4.53v-3.2h4.53v3.2z"></path>
  <path fill="#f0bb73" d="M14.58 48.66h4.53v3.2h-4.53zM9.31 48.66h4.53v3.2H9.31zM9.31 44.73h4.53v3.2H9.31zM14.58 44.73h4.53v3.2h-4.53z"></path>
  <path fill="#8e77a5" d="M55.06 43.99H44.53c-.2 0-.37.16-.37.37v7.87c0 .2.17.37.37.37h10.53c.2 0 .37-.17.37-.37v-7.87a.376.376 0 0 0-.37-.37zm-5.64 7.87H44.9v-3.2h4.53v3.2zm0-3.93H44.9v-3.2h4.53v3.2zm5.27 3.93h-4.53v-3.2h4.53v3.2zm0-3.93h-4.53v-3.2h4.53v3.2z"></path>
  <path fill="#f0bb73" d="M50.16 48.66h4.53v3.2h-4.53zM44.9 48.66h4.53v3.2H44.9zM44.9 44.73h4.53v3.2H44.9zM50.16 44.73h4.53v3.2h-4.53z"></path>
  <path fill="#da4765" d="M3.56 37.21C1.59 37.21 0 35.62 0 33.65v-3.59h7.11v3.59c0 1.97-1.59 3.56-3.55 3.56z"></path>
  <path fill="#e1e2e0" d="M10.67 37.21c-1.96 0-3.56-1.59-3.56-3.56v-3.59h7.11v3.59c0 1.97-1.59 3.56-3.55 3.56z"></path>
  <path fill="#da4765" d="M17.78 37.21c-1.96 0-3.56-1.59-3.56-3.56v-3.59h7.11v3.59c0 1.97-1.59 3.56-3.55 3.56z"></path>
  <path fill="#e1e2e0" d="M24.89 37.21c-1.96 0-3.56-1.59-3.56-3.56v-3.59h7.11v3.59c0 1.97-1.59 3.56-3.55 3.56z"></path>
  <path fill="#da4765" d="M32 37.21c-1.96 0-3.56-1.59-3.56-3.56v-3.59h7.11v3.59A3.547 3.547 0 0 1 32 37.21z"></path>
  <path fill="#e1e2e0" d="M39.11 37.21c-1.96 0-3.56-1.59-3.56-3.56v-3.59h7.11v3.59a3.547 3.547 0 0 1-3.55 3.56z"></path>
  <path fill="#da4765" d="M46.22 37.21c-1.96 0-3.56-1.59-3.56-3.56v-3.59h7.11v3.59a3.54 3.54 0 0 1-3.55 3.56z"></path>
  <path fill="#e1e2e0" d="M53.33 37.21c-1.96 0-3.56-1.59-3.56-3.56v-3.59h7.11v3.59a3.54 3.54 0 0 1-3.55 3.56z"></path>
  <path fill="#da4765" d="M60.44 37.21c-1.96 0-3.56-1.59-3.56-3.56v-3.59H64v3.59c0 1.97-1.59 3.56-3.56 3.56z"></path>
  <path fill="#b33254" d="M7.11 30.06H0l5.07-6.63h5.99z"></path>
  <path fill="#d3d3d3" d="M14.22 30.06H7.11l3.95-6.63h5.98z"></path>
  <path fill="#b33254" d="M21.33 30.06h-7.11l2.82-6.63h5.98z"></path>
  <path fill="#d3d3d3" d="M28.44 30.06h-7.11l1.69-6.63h5.99z"></path>
  <path fill="#b33254" d="M35.56 30.06h-7.12l.57-6.63h5.98z"></path>
  <path fill="#d3d3d3" d="M42.67 30.06h-7.11l-.57-6.63h5.99z"></path>
  <path fill="#b33254" d="M49.78 30.06h-7.11l-1.69-6.63h5.98z"></path>
  <path fill="#d3d3d3" d="M56.89 30.06h-7.11l-2.82-6.63h5.98z"></path>
  <path fill="#b33254" d="M64 30.06h-7.11l-3.95-6.63h5.99z"></path>
</svg>
