<svg xmlns="http://www.w3.org/2000/svg" viewBox="0 0 32 32" id="communication">
  <path fill="#d7e2f2" d="M22.89,21.55A1,1,0,0,0,22,21H10a1,1,0,0,0-.8,1.6l6,8a1,1,0,0,0,1.6,0l6-8A1,1,0,0,0,22.89,21.55Z"></path>
  <rect width="30" height="22" x="1" y="1" fill="#eef5fd" rx="3" ry="3"></rect>
  <path fill="#d7e2f2" d="M25.27,18.28a1,1,0,0,1-1-1v-10a1,1,0,1,1,2,0v10A1,1,0,0,1,25.27,18.28Z"></path>
  <path fill="#d7e2f2" d="M26.27 18.28h-2a1 1 0 1 1 0-2h2a1 1 0 0 1 0 2zM25.27 8.28h-1a1 1 0 0 1 0-2h1a1 1 0 1 1 0 2zM18.85 16.51a7 7 0 1 0-5.58 2.77h6A1 1 0 0 0 20 17.55z"></path>
  <path fill="#ffc661" d="M25,18a1,1,0,0,1-1-1V7a1,1,0,0,1,2,0V17A1,1,0,0,1,25,18Z"></path>
  <path fill="#ffc661" d="M26 18H24a1 1 0 0 1 0-2h2a1 1 0 0 1 0 2zM25 8H24a1 1 0 0 1 0-2h1a1 1 0 0 1 0 2zM18.58 16.23A7 7 0 1 0 13 19h6a1 1 0 0 0 .93-.63 1 1 0 0 0-.24-1.1z"></path>
  <path fill="#e49f4e" d="M14.21 18.33a7 7 0 0 1-4-12.77A7 7 0 0 0 13 19h6a1 1 0 0 0 .93-.63.08.08 0 0 1 0 0zM23.5 17a1 1 0 0 1 1-1V8a1 1 0 0 1 0-2H24a1 1 0 0 0 0 2v8a1 1 0 0 0 0 2h.45A1 1 0 0 1 23.5 17z"></path>
  <path fill="#d7e2f2" d="M2.63,21.63v-16a3,3,0,0,1,3-3h24a3.08,3.08,0,0,1,1.14.22A3,3,0,0,0,28,1H4A3,3,0,0,0,1,4V20a3,3,0,0,0,1.85,2.77A3.08,3.08,0,0,1,2.63,21.63Z"></path>
</svg>
