<svg xmlns="http://www.w3.org/2000/svg" id="assignment" viewBox="0 0 48 48">
  <path d="M35,11.243v31.757c0,1.105-.895,2-2,2H5c-1.105,0-2-.895-2-2V5c0-1.105.895-2,2-2h21.757c.796,0,1.559.316,2.121.879l5.243,5.243c.563.563.879,1.326.879,2.121Z" style="fill:#eff3f9"></path>
  <path d="M35 42.73v.27c0 1.1-.9 2-2 2H5c-1.1 0-2-.9-2-2V5c0-1.1.9-2 2-2h.27c-.17.29-.27.64-.27 1v38c0 .55.45 1 1 1h28c.36 0 .71-.1 1-.27ZM34.73 10h-4.73c-1.105 0-2-.895-2-2V3.28c.32.14.62.34.88.6l5.24 5.24c.26.26.46.56.61.88Z" style="fill:#cfe0f3"></path>
  <path d="M29,17h-12c-.552,0-1-.448-1-1s.448-1,1-1h12c.552,0,1,.448,1,1s-.448,1-1,1ZM30,23c0-.552-.448-1-1-1h-12c-.552,0-1,.448-1,1s.448,1,1,1h12c.552,0,1-.448,1-1ZM30,30c0-.553-.448-1-1-1h-12c-.552,0-1,.447-1,1s.448,1,1,1h12c.552,0,1-.447,1-1ZM30,37c0-.553-.448-1-1-1h-12c-.552,0-1,.447-1,1s.448,1,1,1h12c.552,0,1-.447,1-1ZM13,17v-2c0-.552-.448-1-1-1h-2c-.552,0-1,.448-1,1v2c0,.552.448,1,1,1h2c.552,0,1-.448,1-1ZM13,24v-2c0-.552-.448-1-1-1h-2c-.552,0-1,.448-1,1v2c0,.552.448,1,1,1h2c.552,0,1-.448,1-1ZM13,31v-2c0-.552-.448-1-1-1h-2c-.552,0-1,.448-1,1v2c0,.552.448,1,1,1h2c.552,0,1-.448,1-1ZM13,38v-2c0-.552-.448-1-1-1h-2c-.552,0-1,.448-1,1v2c0,.552.448,1,1,1h2c.552,0,1-.448,1-1Z" style="fill:#b6cae5"></path>
  <path d="M44.692,40.938l-1.5,3.6c-.256.615-1.128.615-1.385,0l-1.5-3.6c-.203-.487-.308-1.01-.308-1.538V6.5c0-.828.672-1.5,1.5-1.5h2c.828,0,1.5.672,1.5,1.5v32.9c0,.528-.105,1.051-.308,1.538Z" style="fill:#ffc343"></path>
  <path d="M40,6.5v32.9c0,.53.1,1.05.31,1.54l1.5,3.6c.13.32.43.47.72.46-.12-.17-.2-.39-.22-.63l-.28-3.94c-.02-.29-.03-.57-.03-.86V6c0-.39.15-.74.39-1h-.89c-.83,0-1.5.67-1.5,1.5Z" style="fill:#ffa221"></path>
  <path d="M40,10h5s0-3.5,0-3.5c0-.828-.672-1.5-1.5-1.5h-2c-.828,0-1.5.672-1.5,1.5v3.5Z" style="fill:#ff3b65"></path>
  <path d="M40,6.5v3.5s2,0,2,0v-4c0-.39.15-.74.39-1h-.89c-.83,0-1.5.67-1.5,1.5Z" style="fill:#d82b50;opacity:.75"></path>
  <rect width="5" height="2" x="40" y="9" style="fill:#eff3f9"></rect>
  <rect width="2" height="2" x="40" y="9" style="fill:#cfe0f3"></rect>
  <path d="M40,39.312v.09c0,.53.1,1.05.31,1.54l1.5,3.6c.25.61,1.13.61,1.38,0l1.5-3.6c.21-.49.31-1.01.31-1.54v-.09c-.37-.21-.79-.34-1.25-.34s-.88.13-1.25.34c-.37-.21-.79-.34-1.25-.34s-.88.13-1.25.34Z" style="fill:#ffcdb4"></path>
  <path d="M40,39.31v.09c0,.53.1,1.05.31,1.54l1.5,3.6c.13.32.43.47.72.46-.12-.17-.2-.39-.22-.63l-.28-3.94c-.02-.29-.03-.57-.03-.86v-.48c-.23-.08-.49-.12-.75-.12-.46,0-.88.13-1.25.34Z" style="fill:#f6a28d"></path>
  <path d="M43.833,43l-.641,1.538c-.256.615-1.128.615-1.385,0l-.641-1.538h2.667Z" style="fill:#424c63"></path>
  <path d="M41.17,43l.64,1.54c.13.32.43.47.72.46-.12-.17-.2-.39-.22-.63l-.1-1.37h-1.04Z" style="fill:#263244"></path>
</svg>
